<svg width="563" height="560" viewBox="0 0 563 560" fill="none" xmlns="http://www.w3.org/2000/svg">
<circle cx="276.5" cy="283.5" r="276.5" fill="#1E293B"/>
<circle cx="286.5" cy="283.5" r="276.5" fill="#1E293B"/>
<circle cx="286.5" cy="283.5" r="276.5" fill="url(#paint0_linear)"/>
<path d="M128.517 260H135.062C132.097 243.278 117.676 225.841 94 225.841C67.7159 225.841 49.8182 247.114 49.8182 279.636C49.8182 312.057 67.5625 333.432 94.5625 333.432C118.545 333.432 135.778 316.557 135.778 288.841V282.909H96.1989V288.841H129.54C129.386 312.875 114.812 327.295 94.5625 327.295C71.5511 327.295 56.108 308.631 56.108 279.636C56.108 250.386 71.7557 231.977 94 231.977C113.381 231.977 125.347 245.886 128.517 260ZM180.344 333.688C192.821 333.688 201.616 326.631 205.707 317.835H206.168V332H212.406V277.131C212.406 259.949 199.622 252.278 185.662 252.278C173.543 252.278 162.19 257.75 157.69 269.051L163.571 271.25C166.639 263.477 174.616 258.006 185.815 258.006C198.497 258.006 206.168 265.318 206.168 276.722V279.994C206.168 286.028 197.372 286.642 185.406 288.074C164.44 290.631 155.44 297.278 155.44 310.369C155.44 325.301 166.793 333.688 180.344 333.688ZM180.957 327.909C169.963 327.909 161.679 321.312 161.679 310.574C161.679 300.858 168.838 295.642 186.02 293.597C193.69 292.727 202.895 291.295 206.168 288.585V300.142C206.168 316.097 195.685 327.909 180.957 327.909ZM238.562 332H244.801V280.455C244.801 267.466 252.625 258.21 265.051 258.21C277.375 258.21 283.46 266.648 283.46 278.869V332H289.699V279.79C289.699 267.261 296.858 258.21 309.847 258.21C321.966 258.21 328.358 266.136 328.358 279.278V332H334.597V279.278C334.597 262.659 326.364 252.432 311.176 252.432C299.517 252.432 291.284 258.364 288.216 267.619H287.653C284.585 258.312 277.682 252.432 266.33 252.432C255.949 252.432 248.278 257.443 245.261 265.318H244.648V253.455H238.562V332ZM389.683 333.636C409.115 333.636 423.229 316.557 423.229 292.983C423.229 269.409 409.064 252.278 389.683 252.278C370.251 252.278 356.138 269.358 356.138 292.983C356.138 316.557 370.251 333.636 389.683 333.636ZM389.683 327.858C373.166 327.858 362.325 312.466 362.325 292.983C362.325 273.602 373.268 258.108 389.683 258.108C406.149 258.108 417.041 273.551 417.041 292.983C417.041 312.466 406.2 327.858 389.683 327.858ZM495.037 304.131C495.037 318.142 484.605 326.938 472.332 326.938C459.753 326.938 450.957 318.091 450.957 305V253.455H444.719V305.256C444.719 322.438 455.662 333.023 471.054 333.023C482.253 333.023 490.844 327.347 494.526 319.267H495.037V332H501.276V253.455H495.037V304.131Z" fill="white"/>
<path d="M197.909 129.42H201.898V110.739H220.58V106.716H201.898V88.0341H197.909V106.716H179.227V110.739H197.909V129.42Z" fill="white"/>
<path d="M359.909 197.42H363.898V178.739H382.58V174.716H363.898V156.034H359.909V174.716H341.227V178.739H359.909V197.42Z" fill="white"/>
<path d="M345.909 86.4205H349.898V67.7386H368.58V63.7159H349.898V45.0341H345.909V63.7159H327.227V67.7386H345.909V86.4205Z" fill="white"/>
<g clip-path="url(#clip0)">
<path d="M248.624 114.533L275.481 87.6834L287.408 114.533H248.624Z" fill="white"/>
<path d="M319.957 86L294.048 111.908L282.535 86H319.957Z" fill="white"/>
<path d="M219.684 143.48L246.533 155.407V116.623L219.684 143.48Z" fill="white"/>
<path d="M243.908 162.048L218 150.535V187.957L243.908 162.048Z" fill="white"/>
<path d="M253.667 152.29L284.29 121.667H253.667V152.29Z" fill="white"/>
<path d="M325 183.948L297.13 118.913L325 91.0433V183.948Z" fill="white"/>
<path d="M318.209 186.209L291.694 124.349L256.349 159.695L318.209 186.209Z" fill="white"/>
<path d="M250.913 165.13L315.948 193H223.043L250.913 165.13Z" fill="white"/>
</g>
<defs>
<linearGradient id="paint0_linear" x1="286.5" y1="7" x2="286.5" y2="560" gradientUnits="userSpaceOnUse">
<stop stop-color="#DC4B78"/>
<stop offset="1" stop-color="#DC4B78" stop-opacity="0"/>
</linearGradient>
<clipPath id="clip0">
<rect width="107" height="107" fill="white" transform="translate(218 86)"/>
</clipPath>
</defs>
</svg>
