<svg width="475" height="373" viewBox="0 0 475 373" fill="none" xmlns="http://www.w3.org/2000/svg">
<path d="M88.5171 243H95.0625C92.0966 226.278 77.6761 208.841 54 208.841C27.7159 208.841 9.81818 230.114 9.81818 262.636C9.81818 295.057 27.5625 316.432 54.5625 316.432C78.5455 316.432 95.7784 299.557 95.7784 271.841V265.909H56.1989V271.841H89.5398C89.3864 295.875 74.8125 310.295 54.5625 310.295C31.5511 310.295 16.108 291.631 16.108 262.636C16.108 233.386 31.7557 214.977 54 214.977C73.3807 214.977 85.3466 228.886 88.5171 243ZM140.344 316.688C152.821 316.688 161.616 309.631 165.707 300.835H166.168V315H172.406V260.131C172.406 242.949 159.622 235.278 145.662 235.278C133.543 235.278 122.19 240.75 117.69 252.051L123.571 254.25C126.639 246.477 134.616 241.006 145.815 241.006C158.497 241.006 166.168 248.318 166.168 259.722V262.994C166.168 269.028 157.372 269.642 145.406 271.074C124.44 273.631 115.44 280.278 115.44 293.369C115.44 308.301 126.793 316.688 140.344 316.688ZM140.957 310.909C129.963 310.909 121.679 304.312 121.679 293.574C121.679 283.858 128.838 278.642 146.02 276.597C153.69 275.727 162.895 274.295 166.168 271.585V283.142C166.168 299.097 155.685 310.909 140.957 310.909ZM198.562 315H204.801V263.455C204.801 250.466 212.625 241.21 225.051 241.21C237.375 241.21 243.46 249.648 243.46 261.869V315H249.699V262.79C249.699 250.261 256.858 241.21 269.847 241.21C281.966 241.21 288.358 249.136 288.358 262.278V315H294.597V262.278C294.597 245.659 286.364 235.432 271.176 235.432C259.517 235.432 251.284 241.364 248.216 250.619H247.653C244.585 241.312 237.682 235.432 226.33 235.432C215.949 235.432 208.278 240.443 205.261 248.318H204.648V236.455H198.562V315ZM349.683 316.636C369.115 316.636 383.229 299.557 383.229 275.983C383.229 252.409 369.064 235.278 349.683 235.278C330.251 235.278 316.138 252.358 316.138 275.983C316.138 299.557 330.251 316.636 349.683 316.636ZM349.683 310.858C333.166 310.858 322.325 295.466 322.325 275.983C322.325 256.602 333.268 241.108 349.683 241.108C366.149 241.108 377.041 256.551 377.041 275.983C377.041 295.466 366.2 310.858 349.683 310.858ZM455.037 287.131C455.037 301.142 444.605 309.938 432.332 309.938C419.753 309.938 410.957 301.091 410.957 288V236.455H404.719V288.256C404.719 305.438 415.662 316.023 431.054 316.023C442.253 316.023 450.844 310.347 454.526 302.267H455.037V315H461.276V236.455H455.037V287.131Z" fill="#1E293B"/>
<path d="M265.487 371.364C267.673 371.364 269.335 370.009 270.307 367.337L278.604 344.376L276.916 344.364L270.678 361.993H270.55L264.311 344.364H262.636L269.834 364.268L268.939 366.723C267.865 369.689 266.165 370.456 263.749 369.536L263.288 370.903C263.902 371.172 264.695 371.364 265.487 371.364ZM290.061 364.409C294.919 364.409 298.448 360.139 298.448 354.246C298.448 348.352 294.907 344.07 290.061 344.07C285.203 344.07 281.675 348.339 281.675 354.246C281.675 360.139 285.203 364.409 290.061 364.409ZM290.061 362.964C285.932 362.964 283.222 359.116 283.222 354.246C283.222 349.401 285.958 345.527 290.061 345.527C294.178 345.527 296.901 349.388 296.901 354.246C296.901 359.116 294.191 362.964 290.061 362.964ZM316.4 357.033C316.4 360.536 313.792 362.734 310.724 362.734C307.579 362.734 305.38 360.523 305.38 357.25V344.364H303.82V357.314C303.82 361.609 306.556 364.256 310.404 364.256C313.204 364.256 315.352 362.837 316.272 360.817H316.4V364H317.96V344.364H316.4V357.033ZM324.422 364H325.982V351.062C325.982 347.892 328.347 345.604 331.619 345.604C332.028 345.604 332.297 345.655 332.501 345.68V344.108C332.259 344.095 331.99 344.095 331.709 344.095C329.114 344.095 326.928 345.425 326.084 347.432H325.943V344.364H324.422V364ZM359.294 348.595C358.348 345.706 356.277 344.07 352.953 344.07C349.194 344.07 346.497 346.243 346.497 349.413C346.497 351.945 348.095 353.722 351.304 354.501L354.436 355.268C356.775 355.844 357.939 357.109 357.939 358.925C357.939 361.303 355.791 362.977 352.582 362.977C349.68 362.977 347.877 361.622 347.315 359.053L345.819 359.436C346.497 362.632 348.939 364.409 352.595 364.409C356.686 364.409 359.524 362.134 359.524 358.874C359.524 356.342 357.939 354.591 354.845 353.824L351.828 353.07C349.271 352.443 348.044 351.229 348.044 349.362C348.044 347.061 350.064 345.489 352.953 345.489C355.637 345.489 357.133 346.831 357.849 348.979L359.294 348.595ZM366.175 371.364C368.361 371.364 370.023 370.009 370.994 367.337L379.291 344.376L377.604 344.364L371.365 361.993H371.237L364.999 344.364H363.324L370.521 364.268L369.626 366.723C368.553 369.689 366.852 370.456 364.436 369.536L363.976 370.903C364.589 371.172 365.382 371.364 366.175 371.364ZM396.63 348.595C395.684 345.706 393.613 344.07 390.289 344.07C386.53 344.07 383.833 346.243 383.833 349.413C383.833 351.945 385.431 353.722 388.64 354.501L391.772 355.268C394.111 355.844 395.275 357.109 395.275 358.925C395.275 361.303 393.127 362.977 389.918 362.977C387.016 362.977 385.213 361.622 384.651 359.053L383.155 359.436C383.833 362.632 386.275 364.409 389.931 364.409C394.022 364.409 396.86 362.134 396.86 358.874C396.86 356.342 395.275 354.591 392.181 353.824L389.164 353.07C386.607 352.443 385.38 351.229 385.38 349.362C385.38 347.061 387.4 345.489 390.289 345.489C392.973 345.489 394.469 346.831 395.185 348.979L396.63 348.595ZM409.2 344.364H405.07V339.659H403.523V344.364H400.621V345.757H403.523V359.641C403.523 362.619 405.837 364.32 408.292 364.32C409.085 364.32 409.621 364.179 410.107 364L409.724 362.581C409.34 362.709 408.957 362.811 408.394 362.811C406.656 362.811 405.07 361.737 405.07 359.359V345.757H409.2V344.364ZM422.431 364.409C426.305 364.409 428.683 362.146 429.577 360.165L428.158 359.589C427.43 361.047 425.627 362.964 422.431 362.964C417.969 362.964 415.298 359.359 415.234 354.527H430.217V353.555C430.217 347.726 426.458 344.07 422.06 344.07C417.19 344.07 413.687 348.403 413.687 354.271C413.687 360.126 417.1 364.409 422.431 364.409ZM415.259 353.108C415.566 348.825 418.34 345.527 422.06 345.527C425.793 345.527 428.657 348.851 428.657 353.108H415.259ZM435.586 364H437.146V351.114C437.146 347.866 439.102 345.553 442.208 345.553C445.289 345.553 446.81 347.662 446.81 350.717V364H448.37V350.947C448.37 347.815 450.16 345.553 453.407 345.553C456.437 345.553 458.035 347.534 458.035 350.82V364H459.594V350.82C459.594 346.665 457.536 344.108 453.739 344.108C450.825 344.108 448.766 345.591 447.999 347.905H447.859C447.092 345.578 445.366 344.108 442.528 344.108C439.933 344.108 438.015 345.361 437.261 347.33H437.107V344.364H435.586V364Z" fill="#1E293B"/>
<path d="M157.909 129.42H161.898V110.739H180.58V106.716H161.898V88.0341H157.909V106.716H139.227V110.739H157.909V129.42Z" fill="#DC4B78"/>
<path d="M319.909 197.42H323.898V178.739H342.58V174.716H323.898V156.034H319.909V174.716H301.227V178.739H319.909V197.42Z" fill="#DC4B78"/>
<path d="M305.909 86.4205H309.898V67.7386H328.58V63.7159H309.898V45.0341H305.909V63.7159H287.227V67.7386H305.909V86.4205Z" fill="#DC4B78"/>
<g clip-path="url(#clip0)">
<path d="M208.624 114.533L235.481 87.6834L247.408 114.533H208.624Z" fill="#DC4B78"/>
<path d="M279.957 86L254.048 111.908L242.535 86H279.957Z" fill="#DC4B78"/>
<path d="M179.684 143.48L206.533 155.407V116.623L179.684 143.48Z" fill="#DC4B78"/>
<path d="M203.908 162.048L178 150.535V187.957L203.908 162.048Z" fill="#DC4B78"/>
<path d="M213.667 152.29L244.29 121.667H213.667V152.29Z" fill="#DC4B78"/>
<path d="M285 183.948L257.13 118.913L285 91.0433V183.948Z" fill="#DC4B78"/>
<path d="M278.209 186.209L251.694 124.349L216.349 159.695L278.209 186.209Z" fill="#DC4B78"/>
<path d="M210.913 165.13L275.948 193H183.043L210.913 165.13Z" fill="#DC4B78"/>
</g>
<path d="M444.42 106.198C446.741 106.198 448.243 104.805 448.454 102.893H446.594C446.351 103.955 445.526 104.581 444.433 104.581C442.816 104.581 441.774 103.232 441.774 101.091C441.774 98.9879 442.835 97.6648 444.433 97.6648C445.648 97.6648 446.389 98.4318 446.594 99.3523H448.454C448.249 97.3707 446.632 96.054 444.401 96.054C441.634 96.054 439.844 98.1378 439.844 101.136C439.844 104.095 441.57 106.198 444.42 106.198ZM454.633 106.198C456.954 106.198 458.456 104.805 458.667 102.893H456.807C456.564 103.955 455.739 104.581 454.646 104.581C453.029 104.581 451.987 103.232 451.987 101.091C451.987 98.9879 453.048 97.6648 454.646 97.6648C455.861 97.6648 456.602 98.4318 456.807 99.3523H458.667C458.462 97.3707 456.845 96.054 454.614 96.054C451.846 96.054 450.057 98.1378 450.057 101.136C450.057 104.095 451.782 106.198 454.633 106.198Z" fill="#1E293B"/>
<path d="M449.5 114C456.956 114 463 107.956 463 100.5C463 93.0442 456.956 87 449.5 87C442.044 87 436 93.0442 436 100.5C436 107.956 442.044 114 449.5 114Z" stroke="black" stroke-linecap="round" stroke-linejoin="round"/>
<path d="M444.42 106.198C446.741 106.198 448.243 104.805 448.454 102.893H446.594C446.351 103.955 445.526 104.581 444.433 104.581C442.816 104.581 441.774 103.232 441.774 101.091C441.774 98.9879 442.835 97.6648 444.433 97.6648C445.648 97.6648 446.389 98.4318 446.594 99.3523H448.454C448.249 97.3707 446.632 96.054 444.401 96.054C441.634 96.054 439.844 98.1378 439.844 101.136C439.844 104.095 441.57 106.198 444.42 106.198ZM454.633 106.198C456.954 106.198 458.456 104.805 458.667 102.893H456.807C456.564 103.955 455.739 104.581 454.646 104.581C453.029 104.581 451.987 103.232 451.987 101.091C451.987 98.9879 453.048 97.6648 454.646 97.6648C455.861 97.6648 456.602 98.4318 456.807 99.3523H458.667C458.462 97.3707 456.845 96.054 454.614 96.054C451.846 96.054 450.057 98.1378 450.057 101.136C450.057 104.095 451.782 106.198 454.633 106.198Z" fill="#1E293B"/>
<path d="M449.5 114C456.956 114 463 107.956 463 100.5C463 93.0442 456.956 87 449.5 87C442.044 87 436 93.0442 436 100.5C436 107.956 442.044 114 449.5 114Z" stroke="black" stroke-linecap="round" stroke-linejoin="round"/>
<defs>
<clipPath id="clip0">
<rect width="107" height="107" fill="white" transform="translate(178 86)"/>
</clipPath>
</defs>
</svg>
